<svg width="1200" height="900" viewBox="0 0 1200 900" fill="none" xmlns="http://www.w3.org/2000/svg">
<rect width="1200" height="900" rx="48" fill="#071A14"/>
<rect x="96" y="90" width="1008" height="720" rx="40" fill="#0B2A22"/>
<rect x="150" y="150" width="900" height="220" rx="32" fill="#ECFDF5"/>
<rect x="150" y="416" width="260" height="264" rx="32" fill="#10B981"/>
<rect x="470" y="416" width="260" height="264" rx="32" fill="#D1FAE5"/>
<rect x="790" y="416" width="260" height="264" rx="32" fill="#A7F3D0"/>
<rect x="214" y="238" width="240" height="24" rx="12" fill="#065F46"/>
<rect x="214" y="286" width="496" height="18" rx="9" fill="#6EE7B7"/>
<circle cx="280" cy="548" r="74" fill="#D1FAE5"/>
<circle cx="600" cy="548" r="74" fill="#10B981"/>
<circle cx="920" cy="548" r="74" fill="#065F46"/>
<path d="M354 548H526" stroke="#6EE7B7" stroke-width="18" stroke-linecap="round"/>
<path d="M674 548H846" stroke="#047857" stroke-width="18" stroke-linecap="round"/>
<path d="M478 548L448 522L478 496" stroke="#6EE7B7" stroke-width="18" stroke-linecap="round" stroke-linejoin="round"/>
<path d="M722 548L752 574L722 600" stroke="#047857" stroke-width="18" stroke-linecap="round" stroke-linejoin="round"/>
</svg>
