<svg width="1200" height="900" viewBox="0 0 1200 900" fill="none" xmlns="http://www.w3.org/2000/svg">
<rect width="1200" height="900" rx="48" fill="#0F172A"/>
<rect x="92" y="90" width="1016" height="720" rx="40" fill="#111827"/>
<rect x="150" y="150" width="900" height="500" rx="32" fill="#1F2937"/>
<rect x="210" y="220" width="780" height="72" rx="20" fill="#F8FAFC"/>
<rect x="210" y="330" width="360" height="260" rx="30" fill="#EF4444"/>
<rect x="612" y="330" width="378" height="118" rx="28" fill="#F8FAFC"/>
<rect x="654" y="366" width="210" height="24" rx="12" fill="#111827"/>
<rect x="654" y="406" width="290" height="16" rx="8" fill="#CBD5E1"/>
<rect x="612" y="472" width="378" height="118" rx="28" fill="#FEF3C7"/>
<rect x="654" y="508" width="160" height="24" rx="12" fill="#92400E"/>
<rect x="654" y="548" width="252" height="16" rx="8" fill="#F59E0B"/>
<rect x="150" y="694" width="900" height="56" rx="18" fill="#F8FAFC"/>
<circle cx="390" cy="460" r="92" fill="#FCA5A5"/>
<path d="M390 418V476L430 516" stroke="#7F1D1D" stroke-width="26" stroke-linecap="round" stroke-linejoin="round"/>
</svg>
